<svg xmlns="http://www.w3.org/2000/svg" width="30.851" height="29.36" viewBox="0 0 30.851 29.36"><defs><style>.a{fill:#fbfbfb;stroke:#fbfbfb;stroke-width:0.5px;}.b{fill:#fff;font-size:15px;font-family:Nunito-ExtraBold, Nunito;font-weight:800;}</style></defs><g transform="translate(-118.726 -1960.583)"><path class="a" d="M478.7,499.344a.446.446,0,0,0,.385.3l3.924.318.122,3.643a.442.442,0,0,0,.271.394.427.427,0,0,0,.173.036.45.45,0,0,0,.3-.114l7.3-6.587.351.962a1.011,1.011,0,0,0,.928.748,1.1,1.1,0,0,0,.837-.449l1.3-1.588a.556.556,0,0,1,.43-.208.545.545,0,0,1,.374.148l1.519,1.378a1.147,1.147,0,0,0,.764.33.877.877,0,0,0,.545-.191l5.284,5.858a.446.446,0,0,0,.33.146.471.471,0,0,0,.136-.021.447.447,0,0,0,.306-.373l.417-3.564,3.913-.362a.444.444,0,0,0,.289-.741l-6.494-7.2c.008-.017.013-.032.022-.048a.552.552,0,0,1,.357-.259l2-.466a.972.972,0,0,0,.51-1.717l-1.42-1.479a.555.555,0,0,1-.158-.411.548.548,0,0,1,.2-.394l1.551-1.341a.972.972,0,0,0-.347-1.757l-1.944-.651a.544.544,0,0,1-.34-.731l.748-1.907a1.068,1.068,0,0,0-.057-1.014,1.013,1.013,0,0,0-1.066-.38l-2.024.327a.548.548,0,0,1-.642-.489l-.223-2.038a.974.974,0,0,0-.935-.973,1.187,1.187,0,0,0-.707.261l-1.64,1.231a.559.559,0,0,1-.8-.135l-1.144-1.7a1.067,1.067,0,0,0-.873-.528,1.028,1.028,0,0,0-.911.662l-.881,1.852a.557.557,0,0,1-.767.25l-1.8-.975a1.013,1.013,0,0,0-1.24.1,1.105,1.105,0,0,0-.279.843l.081,2.049a.551.551,0,0,1-.152.41.558.558,0,0,1-.41.167l-2.072-.024a1.04,1.04,0,0,0-.945.477,1.052,1.052,0,0,0,.062,1.067l1.025,1.776a.558.558,0,0,1,.055.437.551.551,0,0,1-.284.337l-1.826.93a.971.971,0,0,0-.084,1.788l1.733,1.1a.548.548,0,0,1,.156.791l-1.186,1.673a.972.972,0,0,0,.759,1.622l.825.066-6.5,5.863A.445.445,0,0,0,478.7,499.344Zm23.839-3.526a.86.86,0,0,0,.077-.093.879.879,0,0,0,.2-.186,1.09,1.09,0,0,0,.126-.974l-.183-.636,4.883,5.416-3.388.313a.446.446,0,0,0-.4.392L503.513,503l-4.862-5.389.378-1.847a.3.3,0,0,1,.468-.228l1.984.515h0A1.061,1.061,0,0,0,502.541,495.818Zm-17.97-3.744a.347.347,0,0,1-.2-.058.051.051,0,0,1,0-.02h0a.4.4,0,0,1,.081-.173l1.186-1.673a1.433,1.433,0,0,0,.145-.255,1.416,1.416,0,0,0-.546-1.775l-1.733-1.1a.527.527,0,0,1-.115-.094l0,0a.137.137,0,0,1-.031-.048c0-.012.038-.069.161-.132l.939-.478.887-.452a1.414,1.414,0,0,0,.613-1.937c-.008-.016-.015-.032-.024-.048l-1.023-1.776a.414.414,0,0,1-.065-.178.059.059,0,0,1,0-.019.082.082,0,0,1,.02-.011.423.423,0,0,1,.183-.03l.528.006,1.54.019a1.419,1.419,0,0,0,1.335-.917c.006-.017.008-.036.014-.053a1.452,1.452,0,0,0,.076-.514l-.082-2.049c0-.137.028-.2.055-.205a.385.385,0,0,1,.181.059l1.481.8.324.174c.021.012.044.02.066.031a1.438,1.438,0,0,0,.617.144,1.4,1.4,0,0,0,.969-.387,1.46,1.46,0,0,0,.315-.43l.88-1.853a.726.726,0,0,1,.049-.086.294.294,0,0,1,.064-.07l.011-.008a.15.15,0,0,1,.034.017l.027.021a.516.516,0,0,1,.091.106l.776,1.153.369.548a1.439,1.439,0,0,0,.321.339,1.37,1.37,0,0,0,1.132.267,1.43,1.43,0,0,0,.587-.261l.67-.5.969-.727a.373.373,0,0,1,.173-.086l.014,0a.339.339,0,0,1,.067.2l.222,2.038a1.436,1.436,0,0,0,.343.785,1.479,1.479,0,0,0,.233.212,1.413,1.413,0,0,0,1.07.257l2.025-.328a.452.452,0,0,1,.205.009l0,.016a.391.391,0,0,1-.036.191l-.75,1.907a1.413,1.413,0,0,0-.047.138v0l-.007.031a1.4,1.4,0,0,0,.022.791,1.433,1.433,0,0,0,.064.163,1.356,1.356,0,0,0,.111.189,1.422,1.422,0,0,0,.732.561l1.45.485.494.166a.426.426,0,0,1,.158.082.15.15,0,0,1,.021.022.206.206,0,0,1-.047.084.515.515,0,0,1-.078.082l-.973.841-.578.5a1.417,1.417,0,0,0-.1,2.067l1.42,1.479a.344.344,0,0,1,.108.175h0l-.009.009,0,0h0a.4.4,0,0,1-.175.077l-2,.467a1.411,1.411,0,0,0-1.018.9l0,.009a1.363,1.363,0,0,0-.063.248v0a.963.963,0,0,0-.185.82l.57,1.968h0l-1.955-.508a1.525,1.525,0,0,0-.244-.039c-.041,0-.082-.007-.123-.007h0a1.452,1.452,0,0,0-.22.018l-.047.008a1.323,1.323,0,0,0-.185.049c-.025.008-.05.018-.074.028a1.2,1.2,0,0,0-.111.051,1.144,1.144,0,0,0-.138.081c-.015.009-.031.02-.045.031a1.365,1.365,0,0,0-.193.165v0a1.42,1.42,0,0,0-.6.9L497.6,497.5a.442.442,0,0,0,.032.271h0c-.013-.006-.031-.017-.049-.027l-.01-.007a.53.53,0,0,1-.07-.056l-1.518-1.378a1.423,1.423,0,0,0-1.857-.051,1.452,1.452,0,0,0-.207.205l-1.3,1.587a.578.578,0,0,1-.05.054.377.377,0,0,1-.052.043l0,0,0,0a.144.144,0,0,1-.051.025h0a.087.087,0,0,1-.016-.012l0,0a.43.43,0,0,1-.094-.163l-.474-1.3a.442.442,0,0,0,.1-.463l-.033-.088a1.417,1.417,0,0,0-.775-.828,1.444,1.444,0,0,0-.38-.105h0a1.55,1.55,0,0,0-.227-.061l-.006,0a1.431,1.431,0,0,0-.53.007h0a1.492,1.492,0,0,0-.276.086h0l-1.811.77a.449.449,0,0,1,0-.053l.273-2.033h0a1.419,1.419,0,0,0-1.227-1.607h0a1.335,1.335,0,0,0-.151-.045,1.272,1.272,0,0,0-.221-.04l-.691-.056Zm1.8,1.191.451-.056a.533.533,0,0,1,.227.527l-.272,2.033a1.1,1.1,0,0,0,.227.9.867.867,0,0,0,.537.287,1.119,1.119,0,0,0,.956-.009l1.885-.8a.556.556,0,0,1,.219-.046.545.545,0,0,1,.227.277l.024.062-6.861,6.186-.1-3.082a.444.444,0,0,0-.408-.429l-3.294-.268Z" transform="translate(-359.695 1485.225)"/><text class="b" transform="translate(130 1979)"><tspan x="0" y="0">5</tspan></text></g></svg>