<svg xmlns="http://www.w3.org/2000/svg" width="38.036" height="37.058" viewBox="0 0 38.036 37.058"><defs><style>.a{fill:#fbfbfb;stroke:#fbfbfb;stroke-width:0.5px;}</style></defs><path class="a" d="M959.6,219.656a.62.62,0,1,0-1.155.447l1.793,4.628c.007.016.019.029.027.046l-1.319,1.32-1.62-4.314a.619.619,0,1,0-1.16.435l1.792,4.773a.608.608,0,0,0,.033.059l-3.128,3.128a14.81,14.81,0,1,0,.876.877l2.78-2.781a.618.618,0,0,0,.436.259l5.818.638a.547.547,0,0,0,.068,0,.62.62,0,0,0,.067-1.236l-5.456-.6,1.6-1.6a.463.463,0,0,0,.08.018l5.819.638c.023,0,.046,0,.068,0a.619.619,0,0,0,.067-1.235l-4.917-.541,2.987-2.986a.62.62,0,0,0-.877-.877l-3.062,3.063Zm-1.2,21.39a13.548,13.548,0,1,1-4.416-9.991l-2.923,2.924a9.42,9.42,0,1,0,.876.876l2.924-2.923A13.479,13.479,0,0,1,958.4,241.046Zm-13.969.437a.616.616,0,0,0,.875,0l1.909-1.907a2.746,2.746,0,0,1,.427,1.47,2.781,2.781,0,1,1-1.3-2.346l-1.908,1.908A.618.618,0,0,0,944.432,241.483Zm2.8-3.674a4.031,4.031,0,1,0,.876.876l2.953-2.952a8.187,8.187,0,1,1-.877-.876Z" transform="translate(-929.85 -219.007)"/></svg>