<svg xmlns="http://www.w3.org/2000/svg" width="41.393" height="28.86" viewBox="0 0 41.393 28.86"><defs><style>.a{fill:#fbfbfb;}</style></defs><g transform="translate(-108.607 -2296.473)"><path class="a" d="M256.821,683.814H244.294V672.833a.719.719,0,0,0-.718-.718H230.12a.719.719,0,0,0-.718.718V677.6H216.865a.719.719,0,0,0-.718.719v21.937a.718.718,0,0,0,.718.718h39.955a.718.718,0,0,0,.719-.718V684.533A.719.719,0,0,0,256.821,683.814ZM249,693.57h2.395v6.255H249Zm7.106,5.968h-3.849v-6.4a.43.43,0,0,0-.43-.431h-3.258a.432.432,0,0,0-.432.431v6.4h-3.848V685.252H256.1Zm-38.518-20.5H229.4v20.5h-3.849v-6.4a.431.431,0,0,0-.431-.431h-3.258a.432.432,0,0,0-.431.431v6.4h-3.848ZM222.3,693.57h2.395v6.255H222.3Zm20.552-9.037v15.005h-4.13v-6.4a.431.431,0,0,0-.431-.431h-3.258a.431.431,0,0,0-.431.431v6.4h-3.758V673.553h12.017v10.894A.719.719,0,0,0,242.847,684.533Zm-7.388,15.293V693.57h2.4v6.255Z" transform="translate(-107.54 1624.358)"/><path class="a" d="M238.251,676.839h-3.218a.431.431,0,0,0-.431.431v3.218a.432.432,0,0,0,.431.432h3.218a.432.432,0,0,0,.431-.432V677.27A.431.431,0,0,0,238.251,676.839Zm-.431,3.218h-2.356V677.7h2.356Z" transform="translate(-109.728 1623.798)"/><path class="a" d="M243.8,676.839h-3.218a.432.432,0,0,0-.432.431v3.218a.433.433,0,0,0,.432.432H243.8a.432.432,0,0,0,.431-.432V677.27A.431.431,0,0,0,243.8,676.839Zm-.431,3.218h-2.357V677.7h2.357Z" transform="translate(-110.385 1623.798)"/><path class="a" d="M238.251,682.818h-3.218a.431.431,0,0,0-.431.431v3.218a.431.431,0,0,0,.431.431h3.218a.431.431,0,0,0,.431-.431v-3.218A.431.431,0,0,0,238.251,682.818Zm-.431,3.218h-2.356V683.68h2.356Z" transform="translate(-109.728 1623.09)"/><path class="a" d="M243.8,682.818h-3.218a.432.432,0,0,0-.432.431v3.218a.432.432,0,0,0,.432.431H243.8a.431.431,0,0,0,.431-.431v-3.218A.431.431,0,0,0,243.8,682.818Zm-.431,3.218h-2.357V683.68h2.357Z" transform="translate(-110.385 1623.09)"/><path class="a" d="M238.251,688.8h-3.218a.431.431,0,0,0-.431.431v3.218a.431.431,0,0,0,.431.432h3.218a.431.431,0,0,0,.431-.432v-3.218A.431.431,0,0,0,238.251,688.8Zm-.431,3.218h-2.356v-2.356h2.356Z" transform="translate(-109.728 1622.381)"/><path class="a" d="M243.8,688.8h-3.218a.432.432,0,0,0-.432.431v3.218a.432.432,0,0,0,.432.432H243.8a.431.431,0,0,0,.431-.432v-3.218A.431.431,0,0,0,243.8,688.8Zm-.431,3.218h-2.357v-2.356h2.357Z" transform="translate(-110.385 1622.381)"/><path class="a" d="M219.826,686.9h3.218a.431.431,0,0,0,.431-.431v-3.218a.431.431,0,0,0-.431-.431h-3.218a.431.431,0,0,0-.431.431v3.218A.431.431,0,0,0,219.826,686.9Zm.431-3.218h2.356v2.356h-2.356Z" transform="translate(-107.925 1623.09)"/><path class="a" d="M225.37,686.9h3.218a.431.431,0,0,0,.431-.431v-3.218a.431.431,0,0,0-.431-.431H225.37a.432.432,0,0,0-.432.431v3.218A.432.432,0,0,0,225.37,686.9Zm.431-3.218h2.355v2.356H225.8Z" transform="translate(-108.583 1623.09)"/><path class="a" d="M223.044,692.877a.431.431,0,0,0,.431-.432v-3.218a.431.431,0,0,0-.431-.431h-3.218a.431.431,0,0,0-.431.431v3.218a.431.431,0,0,0,.431.432Zm-2.787-3.219h2.356v2.356h-2.356Z" transform="translate(-107.925 1622.381)"/><path class="a" d="M225.37,692.877h3.218a.431.431,0,0,0,.431-.432v-3.218a.431.431,0,0,0-.431-.431H225.37a.432.432,0,0,0-.432.431v3.218A.432.432,0,0,0,225.37,692.877Zm.431-3.219h2.355v2.356H225.8Z" transform="translate(-108.583 1622.381)"/><path class="a" d="M250.118,692.877h3.218a.431.431,0,0,0,.431-.432v-3.218a.431.431,0,0,0-.431-.431h-3.218a.432.432,0,0,0-.432.431v3.218A.432.432,0,0,0,250.118,692.877Zm.431-3.219h2.356v2.356h-2.356Z" transform="translate(-111.517 1622.381)"/><path class="a" d="M255.662,692.877h3.218a.431.431,0,0,0,.431-.432v-3.218a.431.431,0,0,0-.431-.431h-3.218a.432.432,0,0,0-.432.431v3.218A.432.432,0,0,0,255.662,692.877Zm.431-3.219h2.356v2.356h-2.356Z" transform="translate(-112.174 1622.381)"/></g></svg>