<svg xmlns="http://www.w3.org/2000/svg" width="26.981" height="29.36" viewBox="0 0 26.981 29.36"><defs><style>.a,.b{fill:#f6f6f6;}.a{stroke:#f6f6f6;stroke-width:0.5px;}.b{font-size:9px;font-family:Lato-Regular, Lato;}</style></defs><g transform="translate(-304.058 -2296.224)"><path class="a" d="M761.861,414.629h-.84a.512.512,0,0,0-.205.044v-2.812a1.692,1.692,0,0,0-3.383,0v2.778a.554.554,0,0,0-.093-.01H745.733a.482.482,0,0,0-.128.019v-2.787a1.692,1.692,0,0,0-3.383,0v2.8a.491.491,0,0,0-.171-.033h-.841a2.919,2.919,0,0,0-2.915,2.916v18.57a2.918,2.918,0,0,0,2.915,2.915h20.651a2.919,2.919,0,0,0,2.916-2.915v-18.57A2.92,2.92,0,0,0,761.861,414.629Zm-3.481-2.768a.744.744,0,0,1,1.487,0v5.091a.744.744,0,1,1-1.487,0Zm-15.21,0a.744.744,0,0,1,1.487,0v5.091a.744.744,0,1,1-1.487,0Zm20.578,24.254A1.889,1.889,0,0,1,761.861,438H741.21a1.889,1.889,0,0,1-1.887-1.887v-18.57a1.889,1.889,0,0,1,1.887-1.887h.327v1.007a2.355,2.355,0,0,0,4.709,0v-1.007h10.579v1.007a2.355,2.355,0,0,0,4.71,0v-1.007h.326a1.889,1.889,0,0,1,1.887,1.887Z" transform="translate(-433.987 1886.304)"/><path class="a" d="M762.984,426.17H741.638a.514.514,0,0,0-.515.514V439.3a1.771,1.771,0,0,0,1.77,1.768H761.73A1.771,1.771,0,0,0,763.5,439.3V426.684A.513.513,0,0,0,762.984,426.17Zm-.515,13.13a.74.74,0,0,1-.74.74H742.893a.741.741,0,0,1-.741-.74V427.2H762.47Z" transform="translate(-434.718 1882.165)"/><text class="b" transform="translate(317 2319)"><tspan x="-5.22" y="0">15</tspan></text></g></svg>