<svg xmlns="http://www.w3.org/2000/svg" width="36.765" height="41.412" viewBox="0 0 36.765 41.412"><defs><style>.a{fill:#444;}</style></defs><g transform="translate(0 0)"><path class="a" d="M102.674,137.8H82.842a.609.609,0,0,0,0,1.218h19.832a.609.609,0,1,0,0-1.218Z" transform="translate(-77.905 -126.658)"/><path class="a" d="M82.842,86.775h9.916a.609.609,0,0,0,0-1.218H82.842a.609.609,0,0,0,0,1.218Z" transform="translate(-77.905 -78.637)"/><path class="a" d="M102.674,184.1H82.842a.609.609,0,0,0,0,1.218h19.832a.609.609,0,1,0,0-1.218Z" transform="translate(-77.905 -169.206)"/><path class="a" d="M38.184,37.18H31.838a1.891,1.891,0,0,1-1.889-1.889V3.108a1.891,1.891,0,0,1,1.889-1.889H50.122a1.3,1.3,0,0,1,.175.013v3.8A3.111,3.111,0,0,0,53.4,8.139h3.8a1.292,1.292,0,0,1,.013.175V18.688a.609.609,0,1,0,1.218,0V8.313A2.486,2.486,0,0,0,57.7,6.544L51.891.733A2.485,2.485,0,0,0,50.122,0H31.838A3.111,3.111,0,0,0,28.73,3.108V35.29A3.111,3.111,0,0,0,31.838,38.4h6.347a.609.609,0,1,0,0-1.218ZM56.355,6.92H53.4a1.891,1.891,0,0,1-1.889-1.889V2.08Z" transform="translate(-28.73 0)"/><path class="a" d="M119.137,262.27l-5.162-8.713a1.335,1.335,0,0,0-1.83-.469l-1.256.744a2.385,2.385,0,0,0-1.052,2.781,1.868,1.868,0,0,1-1.314-.014c-.991-.312-1.745-.939-2.99-.625-2.113.538-2.049.511-2.24.577a3.256,3.256,0,0,0-3.3-.406l-1.171.453a1.874,1.874,0,0,1-1.641-.137l-.32-.188a2.38,2.38,0,0,0-1.136-2.44h0l-1.255-.744a1.338,1.338,0,0,0-1.83.469l-5.162,8.713a1.335,1.335,0,0,0,.469,1.83l1.255.744a2.367,2.367,0,0,0,1.21.332,2.4,2.4,0,0,0,1.3-.384l.262.154-.552.769a2.041,2.041,0,0,0,1.976,3.208,2.039,2.039,0,0,0,2.329,1.673,2.042,2.042,0,0,0,2.818,1.532,2.041,2.041,0,0,0,3.47.574l1.468.87a2.046,2.046,0,0,0,3.071-1.514l0,0a2.043,2.043,0,0,0,3.079-1.607,2.043,2.043,0,0,0,2.531-1.767,2.044,2.044,0,0,0,2.31-3.218l.809-.473a2.376,2.376,0,0,0,2.12-.152l1.255-.744a1.335,1.335,0,0,0,.469-1.83ZM89.828,263.8l-1.255-.744a.118.118,0,0,1-.041-.161l5.162-8.713a.118.118,0,0,1,.161-.041l1.255.744a1.163,1.163,0,0,1,.408,1.594l-4.1,6.914A1.165,1.165,0,0,1,89.828,263.8Zm2.778,3.781a.824.824,0,0,1-.189-1.15l.812-1.131a.824.824,0,0,1,1.339.961l-.812,1.131A.825.825,0,0,1,92.606,267.577Zm2.329,1.672a.825.825,0,0,1-.189-1.15l.812-1.131h0l.9-1.248a.819.819,0,0,1,.536-.333.83.83,0,0,1,.135-.011.824.824,0,0,1,.668,1.305l-1.708,2.379A.824.824,0,0,1,94.935,269.249Zm2.329,1.672a.825.825,0,0,1-.189-1.15h0l1.708-2.379a.824.824,0,1,1,1.339.961l-.759,1.057h0l-.949,1.322A.825.825,0,0,1,97.264,270.921Zm2.71,1.141a.825.825,0,0,1-.189-1.15l.569-.792a.824.824,0,0,1,1.339.961l-.568.791A.825.825,0,0,1,99.974,272.062Zm13.655-4.857a.825.825,0,0,1-1.13.289l-5.393-3.195a.609.609,0,0,0-.621,1.048l4.077,2.415h0a.825.825,0,0,1-.841,1.419l-4.079-2.417a.609.609,0,1,0-.621,1.048l3,1.78h0a.825.825,0,0,1-.841,1.419l-1.612-.955h0l-1.176-.7a.609.609,0,1,0-.621,1.048l1.177.7h0a.825.825,0,1,1-.841,1.419l-1.373-.813a2.042,2.042,0,0,0-1.372-3.123,2.041,2.041,0,0,0-2.229-2.733,2.042,2.042,0,0,0-3.465-1.092,2.041,2.041,0,0,0-2.84-.729l-.279-.165,3.831-6.467.182.108a3.085,3.085,0,0,0,2.7.224l1.171-.453a1.8,1.8,0,0,1,1.7.037,2.727,2.727,0,0,0-.691,1.816v2.7a1.3,1.3,0,0,0,1.3,1.3h0a2.7,2.7,0,0,0,2.551-1.824l8.039,4.761a.824.824,0,0,1,.289,1.129Zm4.419-4.152-1.256.744a1.165,1.165,0,0,1-1.594-.408l-1.92-3.241a.609.609,0,1,0-1.048.621l1.92,3.241c.036.061.075.119.116.176l-.534.312a3.089,3.089,0,0,0-.311.211l-8.276-4.9a.61.61,0,0,0-.92.524,1.556,1.556,0,0,1-.432,1.158,1.466,1.466,0,0,1-1.043.432h0a.083.083,0,0,1-.083-.084v-2.7a1.516,1.516,0,0,1,1.142-1.467l2.023-.512c.734-.186,1.149.206,2.248.579a3.08,3.08,0,0,0,2.329-.038l.368.621a.609.609,0,1,0,1.048-.621l-.724-1.222a1.163,1.163,0,0,1,.408-1.594l1.255-.744a.118.118,0,0,1,.161.041l5.162,8.713A.117.117,0,0,1,118.047,263.053Z" transform="translate(-82.559 -232.446)"/></g></svg>