<svg xmlns="http://www.w3.org/2000/svg" width="40.15" height="29.357" viewBox="0 0 40.15 29.357"><defs><style>.a{fill:#fbfbfb;stroke:#fbfbfb;stroke-width:0.5px;}</style></defs><path class="a" d="M761.672,739.432l-.1-.042-.04-.016a3.3,3.3,0,0,0-1.889-.149l-.043.011-.065.018c-5.954,1.616-13.867,3.757-17.762,4.781a.635.635,0,0,0-.088.029l-.263.1a14.943,14.943,0,0,1-3.268.6.733.733,0,0,0-.733.734v.535a.673.673,0,0,0-.012.139l.012,6.743a.734.734,0,0,0,.722.863c2.025,0,3.4,1.086,4.986,2.344.346.273.694.548,1.051.814a9.567,9.567,0,0,0,5.943,2.191c1.121,0,2.027-.012,2.745-.035h3.155a8.6,8.6,0,1,0,17.187-.221,9.482,9.482,0,0,0-.433-2.838c.028.009.055.022.083.032a3.054,3.054,0,0,0,.4.094,2.6,2.6,0,0,0,.983-.017,3.2,3.2,0,0,0,2.812-3.259,3.336,3.336,0,0,0-.9-2.285c-.012-.014-.025-.027-.038-.04a3.23,3.23,0,0,0-.7-.553l-13.531-10.46A.778.778,0,0,0,761.672,739.432Zm2.937,27.6a7.881,7.881,0,0,1-7.6-7.6H758.9a1.479,1.479,0,1,1,2.76-.881A3.216,3.216,0,0,0,763.6,759.8v.515a3.38,3.38,0,0,1-.278-.283.856.856,0,0,0-.7-.347,1.061,1.061,0,0,0-.422.113.307.307,0,0,0-.052.03l-.729.454h0a.827.827,0,0,0-.231,1.231,4.26,4.26,0,0,0,.846.9,4.178,4.178,0,0,0,1.563.81v.314a.891.891,0,0,0,.878.9h.715a.891.891,0,0,0,.878-.9v-.31a3.885,3.885,0,0,0,1.284-.575,2.78,2.78,0,0,0,1.23-2.329,2.5,2.5,0,0,0-.508-1.622,3.428,3.428,0,0,0-2.006-1.179v-.125a.962.962,0,0,0,.325.056.94.94,0,0,0,.483-.135.3.3,0,0,0,.039-.023l.8-.536a.823.823,0,0,0,.382-.682.8.8,0,0,0-.229-.574,3.63,3.63,0,0,0-1.8-1.184v-.421a.892.892,0,0,0-.878-.905h-.715a.892.892,0,0,0-.878.905v.384a3.717,3.717,0,0,0-.726.261,2.83,2.83,0,0,0-1.536,1.58,2.663,2.663,0,0,0-1.356-1.73,2.4,2.4,0,0,0-1.085-.264h-.468a7.5,7.5,0,0,1,6.182-3.407c.112,0,.223.008.332.016l5.877,4.062.621.478a8.509,8.509,0,0,1,.792,3.6A7.913,7.913,0,0,1,764.609,767.032Zm2.9-11.209a.327.327,0,0,1,.106.242.338.338,0,0,1-.168.282l-.8.534h0a.635.635,0,0,1-.244.076.482.482,0,0,1-.332-.129,2.117,2.117,0,0,0-.486-.341v1.433A3.148,3.148,0,0,1,767.69,759a2.02,2.02,0,0,1,.4,1.311,2.3,2.3,0,0,1-1.023,1.939,3.528,3.528,0,0,1-1.49.577v.707a.4.4,0,0,1-.389.415h-.715a.4.4,0,0,1-.389-.415v-.707a3.648,3.648,0,0,1-1.742-.794,3.771,3.771,0,0,1-.763-.81A.353.353,0,0,1,761.5,761a.344.344,0,0,1,.183-.306l.729-.455h0a.732.732,0,0,1,.213-.067.374.374,0,0,1,.315.164,2.872,2.872,0,0,0,1.147.853V759.4a2.91,2.91,0,0,1-2.03-1.125,2.1,2.1,0,0,1-.386-1.208,2.192,2.192,0,0,1,1.415-2.089,3.362,3.362,0,0,1,1-.3v-.786a.4.4,0,0,1,.389-.417h.715a.4.4,0,0,1,.389.417v.806A3.178,3.178,0,0,1,767.507,755.823Zm-10.374-1.443a.582.582,0,0,0-.031.08h-3.823a1.611,1.611,0,0,1-1.212-1.618,1.679,1.679,0,0,1,.725-1.4l1.407-.4.523-.148c.649-.166,1.323-.356,1.987-.561l.131-.037c2.86-.806,4.679-1.313,5.166-1.441a2.243,2.243,0,0,1,.408.018l1.323.915A8.619,8.619,0,0,0,757.133,754.38Zm17.429-3.18a.612.612,0,0,0,.1.064,1.738,1.738,0,0,1,.4.308l.019.02a1.872,1.872,0,0,1,.512,1.294,1.746,1.746,0,0,1-1.526,1.8.743.743,0,0,0-.093.015,1.147,1.147,0,0,1-.476.012,1.61,1.61,0,0,1-.185-.042,1.362,1.362,0,0,1-.232-.1,1,1,0,0,1-.137-.081.4.4,0,0,0-.035-.023l-1.452-1.121-.031-.022-8.3-5.735a.752.752,0,0,0-.232-.106,3.346,3.346,0,0,0-1.043-.082.832.832,0,0,0-.134.021c-.478.12-3.133.865-5.277,1.47l-.148.042q-.985.3-1.952.551l-.54.153c-.8.225-1.371.387-1.51.427a.7.7,0,0,0-.17.073,3.137,3.137,0,0,0-1.519,2.708,3.063,3.063,0,0,0,2.481,3.073.719.719,0,0,0,.127.012h5.267a.858.858,0,0,1,0,1.7h-5.633c-.727.023-1.617.034-2.723.034a8.111,8.111,0,0,1-5.068-1.9c-.347-.258-.683-.524-1.016-.788-1.487-1.176-3.018-2.389-5.152-2.621v-5.286l-.01-.782a.757.757,0,0,0,.009-.1,21.191,21.191,0,0,0,2.956-.615.673.673,0,0,0,.081-.027l.263-.1c3.914-1.029,11.8-3.161,17.732-4.773l.043-.012a1.814,1.814,0,0,1,1.05.089l.061.025,12.921,9.987Z" transform="translate(-737.155 -738.903)"/></svg>