<svg xmlns="http://www.w3.org/2000/svg" width="39.666" height="39.666" viewBox="0 0 39.666 39.666"><defs><style>.a{fill:#444;}</style></defs><g transform="translate(0)"><g transform="translate(0 0)"><path class="a" d="M165.844,115.415a9.51,9.51,0,0,0,3.863,5.374,12.5,12.5,0,0,0,13.926,0,9.51,9.51,0,0,0,3.863-5.374.581.581,0,0,0,0-.287,9.51,9.51,0,0,0-3.863-5.374,12.5,12.5,0,0,0-13.926,0,9.51,9.51,0,0,0-3.863,5.374A.581.581,0,0,0,165.844,115.415Zm4.351-.144a6.475,6.475,0,1,1,6.475,6.475A6.482,6.482,0,0,1,170.195,115.271Zm16.137,0a8.437,8.437,0,0,1-3.713,4.783,7.62,7.62,0,0,0,0-9.565A8.437,8.437,0,0,1,186.331,115.271Zm-15.611-4.783a7.62,7.62,0,0,0,0,9.565,8.437,8.437,0,0,1-3.713-4.783A8.436,8.436,0,0,1,170.721,110.489Z" transform="translate(-152.979 -99.296)"/><path class="a" d="M253.05,149.032a4.429,4.429,0,1,0,4.429,4.429A4.434,4.434,0,0,0,253.05,149.032Zm0,7.7a3.268,3.268,0,1,1,3.268-3.268A3.272,3.272,0,0,1,253.05,156.729Z" transform="translate(-229.36 -137.486)"/><path class="a" d="M146.116,59.937a13.409,13.409,0,1,0-13.41-13.409A13.425,13.425,0,0,0,146.116,59.937Zm0-25.657a12.248,12.248,0,1,1-12.248,12.248A12.262,12.262,0,0,1,146.116,34.28Z" transform="translate(-122.426 -30.552)"/><path class="a" d="M23.691,0A15.974,15.974,0,0,0,13.279,3.859a.581.581,0,1,0,.757.881A14.813,14.813,0,1,1,12.455,6.32a.581.581,0,0,0-.881-.757,15.964,15.964,0,0,0-1.533,18.7l-1.79,1.79L8.192,26a1.2,1.2,0,0,0-1.7,0L.533,31.961a1.82,1.82,0,0,0,0,2.573l4.6,4.6a1.82,1.82,0,0,0,2.573,0l5.962-5.962a1.2,1.2,0,0,0,0-1.7l-.058-.058,1.79-1.79A15.973,15.973,0,1,0,23.691,0ZM10.065,35.129,7.171,32.235a.581.581,0,0,0-.821.821l2.894,2.894L6.883,38.311a.658.658,0,0,1-.931,0h0l-4.6-4.6a.658.658,0,0,1,0-.931l2.361-2.361.992.992a.581.581,0,0,0,.821-.821L4.536,29.6l.993-.993,5.528,5.529Zm2.78-2.78-.966.966L6.351,27.786l.965-.965a.039.039,0,0,1,.055,0l5.474,5.474A.039.039,0,0,1,12.845,32.349Zm-.058-1.756L9.072,26.879,10.7,25.256A16.108,16.108,0,0,0,14.41,28.97Z" transform="translate(0 0)"/></g></g></svg>