<svg xmlns="http://www.w3.org/2000/svg" width="29.153" height="31.773" viewBox="0 0 29.153 31.773"><defs><style>.a{fill:#6fbc25;}</style></defs><path class="a" d="M10.295,0H4.373A4.6,4.6,0,0,0,0,4.765V17.47a4.6,4.6,0,0,0,4.373,4.765H7.9a.773.773,0,0,1,.729.854,12.645,12.645,0,0,1-2.852,7.355.8.8,0,0,0,.538,1.33H9.948a.689.689,0,0,0,.574-.308,16.267,16.267,0,0,0,2.6-9.321V3.087A2.894,2.894,0,0,0,10.295,0ZM26.329,0H20.407a4.6,4.6,0,0,0-4.373,4.765V17.47a4.6,4.6,0,0,0,4.373,4.765h3.526a.773.773,0,0,1,.729.854,12.645,12.645,0,0,1-2.852,7.355.8.8,0,0,0,.538,1.33h3.635a.689.689,0,0,0,.574-.308,16.267,16.267,0,0,0,2.6-9.321V3.087A2.894,2.894,0,0,0,26.329,0Z" transform="translate(29.153 31.773) rotate(180)"/></svg>