<svg xmlns="http://www.w3.org/2000/svg" width="40.075" height="46.967" viewBox="0 0 40.075 46.967"><defs><style>.a{fill:#444;}</style></defs><g transform="translate(0 0)"><path class="a" d="M12.319,18.9a.555.555,0,0,0-.547.459L7.918,41.386a.555.555,0,0,0,.547.65H25.6v9.1h-5.34a.555.555,0,1,0,0,1.109H35.633a.555.555,0,1,0,0-1.109h-5.34v-9.1H47.43a.554.554,0,0,0,.546-.65L44.121,19.36a.555.555,0,0,0-.547-.459H36.426a8.5,8.5,0,0,0-16.958,0H12.319ZM35.4,20.01l.883,9.9H28.5v-9.9Zm-8.011,9.9H19.607l.883-9.9h6.9v9.9Zm-14.607-9.9h6.591l-.883,9.9h-7.44ZM10.858,31.023h7.536l-.883,9.9H9.125Zm8.65,0h7.884v9.9H18.625Zm9.675,20.114H26.71v-9.1h2.473ZM28.5,40.927v-9.9h7.884l.883,9.9Zm9.882,0-.883-9.9h7.537l1.733,9.9Zm6.459-11.013H37.4l-.883-9.9h6.591Zm-16.9-17.76A7.439,7.439,0,0,1,35.322,18.9H20.571A7.439,7.439,0,0,1,27.947,12.153Z" transform="translate(-7.909 -5.279)"/><path class="a" d="M28.663,9.488a.554.554,0,0,0,.082-.78l-1.86-2.3a.555.555,0,0,0-.862.7l1.86,2.3A.555.555,0,0,0,28.663,9.488Z" transform="translate(-12.593 -4.019)"/><path class="a" d="M35.359,6.76V3.8a.555.555,0,0,0-1.109,0V6.76a.555.555,0,0,0,1.109,0Z" transform="translate(-14.767 -3.25)"/><path class="a" d="M41.072,9.405l1.86-2.3a.555.555,0,1,0-.862-.7l-1.86,2.3a.555.555,0,1,0,.862.7Z" transform="translate(-16.287 -4.019)"/></g></svg>