<svg xmlns="http://www.w3.org/2000/svg" width="38.497" height="29.86" viewBox="0 0 38.497 29.86"><defs><style>.a{fill:#f5f5f5;stroke:#f5f5f5;}.b{fill:#fbfbfb;}.b,.c{stroke:#fbfbfb;}.c{fill:#272525;}</style></defs><g transform="translate(-295.752 -2126.973)"><path class="a" d="M418.309,942.648h15.517a.461.461,0,1,0,0-.921H418.309a.461.461,0,1,0,0,.921Z" transform="translate(-117.082 1194.709)"/><path class="b" d="M433.826,955.537H418.309a.46.46,0,1,0,0,.921h15.517a.46.46,0,1,0,0-.921Z" transform="translate(-117.082 1193.6)"/><path class="b" d="M449.6,933.039l-.029-.031a2.738,2.738,0,0,0-1.968-.9,2.977,2.977,0,0,0-1.937.829l-5.99,5.988a.447.447,0,0,0-.118.444l-.357.356-.163-.162-.629.629v-8.21H412.94v28.86h25.466V948.088l4.577-4.577-.163-.164.356-.357a.479.479,0,0,0,.119.017.461.461,0,0,0,.327-.135l5.9-5.9a3.134,3.134,0,0,0,.913-2.017A2.647,2.647,0,0,0,449.6,933.039ZM437.484,949.01V959.92H413.862V932.9h23.623v8.21l-5.143,5.143.369.369-.124.72H417.915a.461.461,0,0,0,0,.923h14.512l-.389,2.256,3.9-.675.356.356,1.195-1.195.461-.461Zm-4.25,1.058-.854.16-.06.011.159-.925.2.2.43-2.489,2.426,2.426-2.489.429Zm3.055-1.166-2.645-2.645,5.39-5.39,2.645,2.645Zm6.043-5.716-2.971-2.971.3-.305,2.971,2.971Zm6.548-6.873L443.3,941.9l-2.646-2.645,5.665-5.664,0,0a2.068,2.068,0,0,1,1.288-.556,1.85,1.85,0,0,1,1.3.619.221.221,0,0,0,.022.025,1.767,1.767,0,0,1,.587,1.259A2.222,2.222,0,0,1,448.881,936.312Z" transform="translate(-116.688 1195.491)"/><path class="c" d="M441.975,937.814a.4.4,0,0,0,.572,0l4.248-4.247a.406.406,0,0,0,0-.572l-.006-.006a.4.4,0,0,0-.572,0l-4.248,4.246a.406.406,0,0,0,0,.572Z" transform="translate(-119.009 1195.421)"/></g></svg>