<svg xmlns="http://www.w3.org/2000/svg" width="42.026" height="42.025" viewBox="0 0 42.026 42.025"><defs><style>.a{fill:#444;}</style></defs><path class="a" d="M7.391,32.5a3.427,3.427,0,0,0-1.656.423A19.38,19.38,0,0,1,24.87,2.025.821.821,0,0,0,25.2.416,21.169,21.169,0,0,0,21.012,0,21.013,21.013,0,0,0,4.521,34.034,3.449,3.449,0,1,0,7.391,32.5Zm1.277,4.724A1.806,1.806,0,1,1,9.2,35.947,1.793,1.793,0,0,1,8.668,37.223Zm0,0" transform="translate(0 0.001)"/><path class="a" d="M218.777,37.409a3.44,3.44,0,1,0-1.213,1.114,19.38,19.38,0,0,1-19.1,30.9.821.821,0,1,0-.322,1.61,21.184,21.184,0,0,0,4.143.408,21.013,21.013,0,0,0,16.49-34.036Zm-4.146-.634a1.806,1.806,0,1,1,1.277.529A1.794,1.794,0,0,1,214.631,36.775Zm0,0" transform="translate(-181.274 -29.42)"/><path class="a" d="M85.537,103.057a.821.821,0,0,0,.821.821H91.49a.821.821,0,0,0,.821-.821v-1.591a12.854,12.854,0,0,0,3.081-1.277l1.124,1.123a.821.821,0,0,0,1.161,0l3.628-3.63a.821.821,0,0,0,0-1.161L100.182,95.4a12.853,12.853,0,0,0,1.277-3.081h1.585a.821.821,0,0,0,.821-.821V86.365a.821.821,0,0,0-.821-.821h-1.586a12.856,12.856,0,0,0-1.276-3.08l1.116-1.116a.821.821,0,0,0,0-1.161l-3.631-3.628a.821.821,0,0,0-1.161,0l-1.115,1.115A12.853,12.853,0,0,0,92.311,76.4V74.821A.821.821,0,0,0,91.49,74H86.358a.821.821,0,0,0-.821.821V76.4a12.843,12.843,0,0,0-3.08,1.276l-1.115-1.115a.821.821,0,0,0-1.161,0l-3.63,3.628a.821.821,0,0,0,0,1.161l1.116,1.116a12.851,12.851,0,0,0-1.277,3.08H74.808a.821.821,0,0,0-.821.82l0,5.132a.82.82,0,0,0,.821.821H76.39A12.853,12.853,0,0,0,77.667,95.4l-1.122,1.122a.821.821,0,0,0,0,1.161l3.628,3.63a.821.821,0,0,0,.58.241h0a.821.821,0,0,0,.58-.24l1.123-1.123a12.865,12.865,0,0,0,3.081,1.277Zm-2.759-4.594a.821.821,0,0,0-1.026.109l-1,1L78.286,97.1l1-1a.821.821,0,0,0,.109-1.026,11.235,11.235,0,0,1-1.555-3.752.821.821,0,0,0-.8-.648h-1.41l0-3.491h1.408a.821.821,0,0,0,.8-.648,11.236,11.236,0,0,1,1.555-3.752.821.821,0,0,0-.109-1.026l-.992-.992L80.761,78.3l.991.991a.821.821,0,0,0,1.026.109,11.231,11.231,0,0,1,3.752-1.555.821.821,0,0,0,.648-.8v-1.4h3.491v1.4a.82.82,0,0,0,.648.8A11.24,11.24,0,0,1,95.07,79.4a.82.82,0,0,0,1.026-.109l.991-.991,2.469,2.467-.992.992a.821.821,0,0,0-.109,1.026,11.243,11.243,0,0,1,1.555,3.752.82.82,0,0,0,.8.648h1.41v3.491h-1.41a.821.821,0,0,0-.8.648,11.233,11.233,0,0,1-1.555,3.752.821.821,0,0,0,.109,1.026l1,1L97.1,99.57l-1-1a.821.821,0,0,0-1.026-.109,11.243,11.243,0,0,1-3.752,1.555.821.821,0,0,0-.648.8v1.416H87.179V100.82a.821.821,0,0,0-.648-.8A11.236,11.236,0,0,1,82.778,98.462Zm0,0" transform="translate(-67.911 -67.926)"/><path class="a" d="M186.936,180.153a6.782,6.782,0,1,0-6.782,6.782A6.79,6.79,0,0,0,186.936,180.153Zm-11.923,0a5.141,5.141,0,1,1,5.141,5.141A5.146,5.146,0,0,1,175.013,180.153Zm0,0" transform="translate(-159.141 -159.141)"/><path class="a" d="M338.9,19.451a.822.822,0,1,0-.58-.24A.827.827,0,0,0,338.9,19.451Zm0,0" transform="translate(-310.328 -16.347)"/><path class="a" d="M155.18,474.359a.821.821,0,1,0,.58.241A.827.827,0,0,0,155.18,474.359Zm0,0" transform="translate(-141.689 -435.423)"/></svg>