<svg xmlns="http://www.w3.org/2000/svg" width="32.295" height="32.449" viewBox="0 0 32.295 32.449"><defs><style>.a{fill:#fff;stroke:#fff;stroke-width:0.5px;}</style></defs><g transform="translate(-298.743 -1799.613)"><path class="a" d="M32.949,22.166a.619.619,0,0,0-.565-.6,7.97,7.97,0,0,1-4.617-2.52.619.619,0,0,0-.449-.193h0a.619.619,0,0,0-.449.192,9.374,9.374,0,0,1-2.008,1.6,11.178,11.178,0,0,0-4.617-3.088l-.048-.017q-.212-.075-.429-.143a8.061,8.061,0,0,0,2.565-5.342v-.973a2.048,2.048,0,0,0-.087-3.793A7.638,7.638,0,0,0,16.759.738.93.93,0,0,0,15.851,0H13.607a.929.929,0,0,0-.9.694,7.657,7.657,0,0,0-5.641,6.59,2.047,2.047,0,0,0-.086,3.793v.972a8.067,8.067,0,0,0,2.565,5.342q-.21.066-.416.139a.615.615,0,0,0-.079.028A11.174,11.174,0,0,0,4,21.176a14.432,14.432,0,0,0-2.7,5.908,3.075,3.075,0,0,0,.243,2.565,2.9,2.9,0,0,0,2.33.773h4.05a.619.619,0,1,0,0-1.238H3.88c-.741,0-1.2-.1-1.365-.31s-.175-.73,0-1.522c.643-2.9,2.217-6.445,6.007-8.235a6.013,6.013,0,0,0,1.737,4.326.619.619,0,0,0,.908.048L14.656,20.1l3.491,3.393a.619.619,0,0,0,.432.175h.033a.619.619,0,0,0,.443-.223,6.023,6.023,0,0,0,1.735-4.324A9.87,9.87,0,0,1,23.7,21.207a5.354,5.354,0,0,1-1.447.356.619.619,0,0,0-.565.6A10.388,10.388,0,0,0,23,27.821c.008.016.346.62.871,1.362H13.534a.619.619,0,0,0,0,1.238H24.856a3.851,3.851,0,0,0,2.462,1.527c2.014,0,4.294-4.086,4.316-4.127a10.421,10.421,0,0,0,1.316-5.656ZM20.98,7.15H17.572a13.409,13.409,0,0,1-.788-5.106,6.4,6.4,0,0,1,4.2,5.106ZM13.916,1.238h1.625a16.953,16.953,0,0,0,.713,5.912H13.2A16.98,16.98,0,0,0,13.916,1.238ZM12.674,2a13.52,13.52,0,0,1-.787,5.155H8.334A6.485,6.485,0,0,1,12.674,2ZM7.8,8.388h4.142c.036.03.072.033.1,0h9.478a.81.81,0,0,1,0,1.619H7.8a.81.81,0,1,1,0-1.619Zm.424,3.661v-.8H21.093v.8c0,2.36-2.287,5.28-4.894,6.247a3.918,3.918,0,0,1-3.094,0C10.5,17.323,8.221,14.4,8.221,12.049ZM10.791,22.13A4.212,4.212,0,0,1,9.829,18.6q.41-.132.848-.24a8.322,8.322,0,0,0,2,1.094c.225.083.441.152.652.209Zm7.732,0-2.536-2.465c.209-.057.422-.125.644-.207a8.316,8.316,0,0,0,2.005-1.1q.434.105.847.239a4.214,4.214,0,0,1-.96,3.529Zm12.019,5.107c-.732,1.366-2.447,3.474-3.225,3.474s-2.492-2.107-3.225-3.475a8.943,8.943,0,0,1-1.172-4.517,7.772,7.772,0,0,0,2.047-.724.618.618,0,0,0,.07-.037,10.432,10.432,0,0,0,2.28-1.617,9.313,9.313,0,0,0,4.4,2.378,8.973,8.973,0,0,1-1.172,4.518Z" transform="translate(297.836 1799.863)"/><path class="a" d="M146.593,471.373a.619.619,0,0,0,0,1.238h0a.619.619,0,0,0,0-1.238Z" transform="translate(161.975 1357.674)"/></g></svg>