<svg xmlns="http://www.w3.org/2000/svg" width="43.658" height="43.867" viewBox="0 0 43.658 43.867"><defs><style>.a{fill:#444;stroke:#fff;stroke-width:0.5px;}</style></defs><g transform="translate(0.236 0.25)"><path class="a" d="M393.921,388.46A.84.84,0,0,0,392.9,389.8l1.436,1.1a.84.84,0,0,0,1.133-.1l2.745-3.031a.84.84,0,1,0-1.246-1.128l-2.226,2.458Z" transform="translate(-359.676 -353.886)"/><path class="a" d="M44.314,30.088a.84.84,0,0,0-.767-.818,10.818,10.818,0,0,1-6.268-3.421.841.841,0,0,0-.609-.262h0a.841.841,0,0,0-.609.261,12.725,12.725,0,0,1-2.726,2.167,15.172,15.172,0,0,0-6.267-4.191c-.021-.009-.043-.016-.065-.023q-.288-.1-.582-.194A10.941,10.941,0,0,0,29.9,16.355v-1.32a2.779,2.779,0,0,0-.118-5.148A10.367,10.367,0,0,0,22.339,1a1.263,1.263,0,0,0-1.234-1H18.06a1.262,1.262,0,0,0-1.218.942A10.394,10.394,0,0,0,9.186,9.887a2.778,2.778,0,0,0-.117,5.148v1.32a10.95,10.95,0,0,0,3.482,7.251q-.286.09-.565.188a.835.835,0,0,0-.107.038,15.168,15.168,0,0,0-6.856,4.91,19.59,19.59,0,0,0-3.66,8.02c-.248,1.121-.434,2.53.33,3.482a3.934,3.934,0,0,0,3.163,1.049h5.5a.84.84,0,1,0,0-1.681h-5.5c-1.005,0-1.629-.142-1.853-.421-.237-.3-.237-.991,0-2.066.873-3.934,3.009-8.748,8.154-11.179a8.162,8.162,0,0,0,2.358,5.873.84.84,0,0,0,1.232.066l4.736-4.606,4.738,4.606a.841.841,0,0,0,.586.238h.045a.84.84,0,0,0,.6-.3,8.176,8.176,0,0,0,2.356-5.869,13.4,13.4,0,0,1,3.946,2.835,7.267,7.267,0,0,1-1.964.484.84.84,0,0,0-.767.818,14.1,14.1,0,0,0,1.785,7.677c.011.021.469.842,1.183,1.849H17.962a.84.84,0,1,0,0,1.681H33.329c1.013,1.12,2.208,2.073,3.341,2.073,2.734,0,5.829-5.546,5.858-5.6A14.146,14.146,0,0,0,44.314,30.088ZM28.069,9.705H23.442a18.2,18.2,0,0,1-1.069-6.931,8.689,8.689,0,0,1,5.7,6.931ZM18.48,1.681h2.206a23.011,23.011,0,0,0,.968,8.024H17.513A23.048,23.048,0,0,0,18.48,1.681ZM16.794,2.708a18.352,18.352,0,0,1-1.068,7H10.9a8.8,8.8,0,0,1,5.892-7Zm-6.621,8.678H15.8c.05.04.1.045.138,0H28.8a1.1,1.1,0,0,1,0,2.2H10.174a1.1,1.1,0,1,1,0-2.2Zm.576,4.969V15.265H28.222v1.091c0,3.2-3.1,7.167-6.643,8.48a5.319,5.319,0,0,1-4.2,0C13.848,23.514,10.75,19.553,10.75,16.355Zm3.488,13.684a5.717,5.717,0,0,1-1.3-4.79q.556-.18,1.151-.325a11.3,11.3,0,0,0,2.709,1.486c.3.113.6.207.886.284Zm10.5,0-3.443-3.346c.283-.077.573-.169.874-.281a11.288,11.288,0,0,0,2.722-1.488q.588.143,1.15.325A5.721,5.721,0,0,1,24.733,30.038ZM41.047,36.97c-.994,1.855-3.321,4.715-4.377,4.715s-3.383-2.86-4.378-4.716A12.139,12.139,0,0,1,30.7,30.838a10.55,10.55,0,0,0,2.779-.983.837.837,0,0,0,.1-.05A14.16,14.16,0,0,0,36.67,27.61a12.641,12.641,0,0,0,5.968,3.228,12.179,12.179,0,0,1-1.591,6.133Z" transform="translate(-1.146 0)"/><path class="a" d="M146.814,471.373a.84.84,0,0,0,0,1.681h0a.84.84,0,0,0,0-1.681Z" transform="translate(-133.803 -431.76)"/></g></svg>