<svg xmlns="http://www.w3.org/2000/svg" width="33.888" height="33.894" viewBox="0 0 33.888 33.894"><defs><style>.a{fill:none;stroke:#676767;stroke-linecap:round;stroke-linejoin:round;stroke-width:1.5px;}</style></defs><path class="a" d="M341.469,179.11c.54-.893,3.511-4.14,5.632-4.045a2.777,2.777,0,0,1,1.648.881,28.731,28.731,0,0,1,4.208,5.694c.415,1.994-1.96,3.142-1.241,5.151a16.828,16.828,0,0,0,9.579,9.574c2.007.727,3.156-1.647,5.147-1.232a28.775,28.775,0,0,1,5.694,4.207,2.792,2.792,0,0,1,.882,1.649c.078,2.231-3.371,5.245-4.042,5.625-1.586,1.135-3.656,1.115-6.178-.057-7.035-2.924-18.286-13.963-21.27-21.263C340.388,182.779,340.307,180.691,341.469,179.11Z" transform="translate(-339.881 -174.313)"/></svg>