<svg xmlns="http://www.w3.org/2000/svg" xmlns:xlink="http://www.w3.org/1999/xlink" width="102" height="102" viewBox="0 0 102 102"><defs><style>.a{fill:#69a01e;}.b,.d{fill:#fff;}.b{stroke:#6fbc25;stroke-width:2px;}.c{clip-path:url(#a);}.e{fill:#6fbc25;}</style><clipPath id="a"><path class="a" d="M360.561,394.374a50,50,0,1,0-50,50A50,50,0,0,0,360.561,394.374Z" transform="translate(-260.561 -344.374)"/></clipPath></defs><g transform="translate(-259.561 -343.374)"><path class="b" d="M360.561,394.374a50,50,0,1,0-50,50A50,50,0,0,0,360.561,394.374Z"/><g class="c" transform="translate(260.561 344.374)"><path class="d" d="M320.547,390.25h-2.856a16.441,16.441,0,0,1-15.151,0h-2.856a12.717,12.717,0,0,0-12.7,12.7v16.466h46.269V402.953A12.716,12.716,0,0,0,320.547,390.25Z" transform="translate(-260.061 -343.505)"/><path class="d" d="M323.287,376.111a13.354,13.354,0,1,0-13.354,13.354A13.371,13.371,0,0,0,323.287,376.111Z" transform="translate(-259.879 -344.026)"/><path class="e" d="M320.547,390.25h-2.856a16.441,16.441,0,0,1-15.151,0h-2.856a12.717,12.717,0,0,0-12.7,12.7v16.466h46.269V402.953A12.716,12.716,0,0,0,320.547,390.25Z" transform="translate(-260.061 -343.505)"/><path class="e" d="M323.287,376.111a13.354,13.354,0,1,0-13.354,13.354A13.371,13.371,0,0,0,323.287,376.111Z" transform="translate(-259.879 -344.026)"/></g></g></svg>